# xmcd
#
# Track frame offsets: 
#        150
#        12362
#        28407
#        38362
#        49172
#        59997
#        73775
#        86207
#        99492
#        111465
#        124405
#        139637
#        159580
#        177530
#        197467
#        209670
#        227660
#        247472
#        268820
#        284762
#        304507
#
# Disc length: 4316 seconds
#
# Revision: 1
# Processed by: cddbd v1.5.2PL0 Copyright (c) Steve Scherf et al.
# Submitted via: ExactAudioCopyFreeDBPlugin 1.0
#
DISCID=5110da15
DTITLE=Tom Petty and The Heartbreakers - Playback - CD 1 - The Big Jangl
DTITLE=e, 1995
DYEAR=1995
DGENRE=
TTITLE0=Breakdown (1976)
TTITLE1=American Girl (1976)
TTITLE2=Hometown Blues (1976)
TTITLE3=Anything That's Rock 'N' Roll (1976)
TTITLE4=I Need To Know (1978)
TTITLE5=Listen To Her Heart (1978)
TTITLE6=When The Time Comes (1978)
TTITLE7=Too Much Ain't Enough (1978)
TTITLE8=No Second Thoughts (1978)
TTITLE9=Baby's A Rock 'N' Roller (1978)
TTITLE10=Refugee (1979)
TTITLE11=Here Comes My Girl (1979)
TTITLE12=Even The Losers (1979)
TTITLE13=Shadow Of A Doubt (A Complex Kid) (1979)
TTITLE14=Don't Do Me Like That (1979)
TTITLE15=The Waiting (1981)
TTITLE16=A Woman In Love (It's Not Me) (1981)
TTITLE17=Something Big (1981)
TTITLE18=A Thing About You (1981)
TTITLE19=Insider (1981)
TTITLE20=You Can Still Change Your Mind (1981)
EXTD=
EXTT0=
EXTT1=
EXTT2=
EXTT3=
EXTT4=
EXTT5=
EXTT6=
EXTT7=
EXTT8=
EXTT9=
EXTT10=
EXTT11=
EXTT12=
EXTT13=
EXTT14=
EXTT15=
EXTT16=
EXTT17=
EXTT18=
EXTT19=
EXTT20=
PLAYORDER=
